<?xml version="1.0" encoding="utf-8"?>
<!DOCTYPE svg PUBLIC "-//W3C//DTD SVG 1.1//EN" "http://www.w3.org/Graphics/SVG/1.1/DTD/svg11.dtd">
<svg id="option_6" xmlns="http://www.w3.org/2000/svg" viewBox="0 0 731 469.08"><defs><style type="text/css">.cls-1{fill:#00703c;}.cls-2{fill:#b5121b;}.cls-3{fill:#fff;}.cls-4{fill:#005596;}</style></defs><title>NathersLogo</title><rect class="cls-1" x="149" y="238.63" width="439.37" height="218.3"/><rect class="cls-2" x="149" y="454.55" width="439.37" height="14.53"/><polygon class="cls-3" points="587.79 206.5 443.4 206.5 443.4 169.73 368.68 122.91 293.95 169.73 293.95 206.5 149.58 206.5 149 238.63 293.95 238.63 293.95 282.54 443.4 282.54 443.4 238.63 588.37 238.63 587.79 206.5"/><path class="cls-3" d="M220.11,317q-0.09-1.85-.13-3.28a10.3,10.3,0,0,0,4,0q4.88,4.77,9.65,9.39t9.79,9.39V318a24.3,24.3,0,0,0-.09-2.72,11.58,11.58,0,0,0-.16-1.54,10.3,10.3,0,0,0,4,0q-0.22,3.59-.36,6.49t-0.22,5.47q-0.09,2.56-.11,5.07t0,5.35v4.76q-0.9-.08-1.84-0.08a16.77,16.77,0,0,0-1.75.08q-9.23-9.47-19.58-19.06c0,0.76,0,1.53-.07,2.29s0,1.54,0,2.33V335q0,1.63.07,2.8c0,0.76.06,1.39,0.09,1.87s0.06,0.87.09,1.17a7.25,7.25,0,0,0-1.08-.08h-1q-1,0-2.06.08a19.13,19.13,0,0,0,.22-2.25q0.13-1.93.29-4.71t0.27-6q0.11-3.26.11-6.25Q220.2,318.9,220.11,317Z"/><path class="cls-3" d="M280.68,340.9q-1.08-.08-2-0.08h-3.84q-1,0-1.9.08-0.72-1.94-1.48-4t-1.61-4l-2.87-.06h-5.2l-2.33.06q-0.9,2-1.66,4t-1.39,4a7.11,7.11,0,0,0-1-.08h-2.13a9.16,9.16,0,0,0-1.17.08q0.54-1,1.43-2.84t2-4.1l2.31-4.91q1.23-2.62,2.46-5.31l2.42-5.28q1.19-2.61,2.17-4.85l0.85,0.14a6.43,6.43,0,0,0,1.7,0l0.85-.14,3.07,7.18q1.63,3.83,3.29,7.52t3.23,7Q279.38,338.59,280.68,340.9Zm-15.86-19.69q-1.17,2.37-2.2,4.68t-2,4.71h8.2l-2-4.71q-0.95-2.3-2.05-4.71v0Z"/><path class="cls-3" d="M288.81,318.11a8.62,8.62,0,0,0-.11-1.38H287l-2.1.1c-0.75,0-1.51.09-2.29,0.15s-1.49.14-2.15,0.22c0.06-.29.11-0.58,0.16-0.87a5.67,5.67,0,0,0,0-1.74,4.43,4.43,0,0,0-.16-0.87l2.76,0.08,2.48,0.1H298.5l2.44-.06,2.58-.08c-0.06.29-.11,0.58-0.16,0.87a5.63,5.63,0,0,0,0,1.74,4.43,4.43,0,0,0,.16.87q-0.9-.12-2-0.22c-0.75-.06-1.49-0.12-2.22-0.15l-2.08-.1h-1.66a3.66,3.66,0,0,0-.07.55v12.83q0,3.27.09,5.82t0.27,5a15.8,15.8,0,0,0-1.66-.08h-4a15.8,15.8,0,0,0-1.66.08q0.18-2.45.27-5t0.09-5.82V320.2Q288.84,319.06,288.81,318.11Z"/><path class="cls-3" d="M310.12,318.9q-0.09-2.55-.27-5.11c0.51,0.06,1.06.1,1.66,0.14s1.27,0.06,2,.06,1.42,0,2-.06,1.15-.08,1.66-0.14q-0.18,2.57-.27,5.11t-0.09,5.82v5.37q0,3.27.09,5.82t0.27,5a15.82,15.82,0,0,0-1.66-.08h-4a15.8,15.8,0,0,0-1.66.08q0.18-2.45.27-5t0.09-5.82V324.7Q310.21,321.43,310.12,318.9Z"/><path class="cls-3" d="M325.33,321.9a13.75,13.75,0,0,1,3.47-4.5,16.51,16.51,0,0,1,5.42-3,21.5,21.5,0,0,1,7.08-1.1,24.71,24.71,0,0,1,6.68.87,15.92,15.92,0,0,1,5.38,2.61,12.31,12.31,0,0,1,3.61,4.4,13.82,13.82,0,0,1,1.32,6.21,12.22,12.22,0,0,1-1.28,5.52,14,14,0,0,1-3.54,4.48,16.44,16.44,0,0,1-5.4,3,21.32,21.32,0,0,1-6.9,1.07,27.83,27.83,0,0,1-6.65-.77,15,15,0,0,1-5.42-2.49,12.23,12.23,0,0,1-3.65-4.38,14,14,0,0,1-1.34-6.37A12.49,12.49,0,0,1,325.33,321.9Zm24.89,0a10.15,10.15,0,0,0-2-3.45,8.65,8.65,0,0,0-3.09-2.19,10.09,10.09,0,0,0-4-.77,8.61,8.61,0,0,0-4.1,1,9.28,9.28,0,0,0-3.07,2.62,11.89,11.89,0,0,0-1.9,3.89,16.89,16.89,0,0,0-.65,4.75,16.19,16.19,0,0,0,.76,5.33,9.27,9.27,0,0,0,2.06,3.49,7.74,7.74,0,0,0,3,1.91,10.92,10.92,0,0,0,3.58.59,10.1,10.1,0,0,0,3.85-.75,8.58,8.58,0,0,0,3.2-2.29,11.55,11.55,0,0,0,2.2-3.91,17,17,0,0,0,.83-5.6,13.78,13.78,0,0,0-.68-4.62h0Z"/><path class="cls-3" d="M365.74,317q-0.09-1.85-.13-3.28a10.3,10.3,0,0,0,4,0q4.88,4.77,9.65,9.39t9.79,9.39v-7.26q0-1.93,0-3.81V318a24.3,24.3,0,0,0-.09-2.72,11.59,11.59,0,0,0-.16-1.54,10.3,10.3,0,0,0,4,0q-0.22,3.59-.36,6.49t-0.22,5.47q-0.09,2.56-.11,5.07t0,5.35v4.76c-0.6,0-1.21-.08-1.84-0.08a16.75,16.75,0,0,0-1.75.08q-9.23-9.47-19.58-19.06c0,0.76,0,1.53-.07,2.29s0,1.54,0,2.33V335q0,1.63.07,2.8c0,0.76.06,1.39,0.09,1.87s0.06,0.87.09,1.17a7.24,7.24,0,0,0-1.07-.08h-1q-1,0-2.06.08a19.36,19.36,0,0,0,.22-2.25q0.13-1.93.29-4.71t0.27-6q0.11-3.26.11-6.25Q365.81,318.9,365.74,317Z"/><path class="cls-3" d="M418.22,326.14q-1,2.51-2.08,5.11t-2,5.13q-1,2.52-1.7,4.5-1-.08-2.29-0.08H409a8.47,8.47,0,0,0-1.24.1q-0.49-1.62-1.3-4.18t-1.7-5.47q-0.94-2.88-1.93-5.82T401,320q-0.85-2.44-1.43-4.16c-0.39-1.15-.64-1.85-0.76-2.11l2,0.13q0.94,0.06,1.84.06t1.81-.06l1.81-.14q0.67,2.53,1.43,5.19t1.55,5.25l1.52,5,1.37,4.48h0.09l2.13-5.39q1.14-2.9,2.22-5.68l2-5.13q0.9-2.35,1.39-3.73l1.12,0.14a10.57,10.57,0,0,0,2.24,0l1.12-.14a20.84,20.84,0,0,0,.67,2.33q0.49,1.46,1.14,3.24t1.39,3.75q0.74,2,1.48,3.91t1.37,3.67q0.63,1.74,1,3h0.09q0.9-2.48,1.9-5.48l2-5.8q0.94-2.8,1.7-5.13t1.08-3.51a11,11,0,0,0,1.88.2,9,9,0,0,0,1-.06l1-.14-1,2.45q-0.69,1.7-1.57,4t-1.93,5q-1,2.69-2.06,5.48t-2,5.41q-1,2.65-1.68,4.83-1-.08-2.28-0.08h-1.17a8.46,8.46,0,0,0-1.16.08q-1.44-4.81-3.25-9.57t-3.83-9.69h-0.09Z"/><path class="cls-3" d="M448.29,318.9q-0.09-2.55-.27-5.11c0.51,0.06,1.06.1,1.66,0.14s1.27,0.06,2,.06,1.42,0,2-.06,1.15-.08,1.66-0.14q-0.18,2.57-.27,5.11T455,324.72v5.37q0,3.27.09,5.82t0.27,5a15.82,15.82,0,0,0-1.66-.08h-4a15.8,15.8,0,0,0-1.66.08q0.18-2.45.27-5t0.09-5.82V324.7Q448.38,321.43,448.29,318.9Z"/><path class="cls-3" d="M464.59,318.9q-0.09-2.55-.27-5.11c0.51,0.06,1.06.1,1.66,0.14s1.27,0.06,2,.06q1.48,0,3.32-.1t4.79-.1a37,37,0,0,1,7,.61,15.5,15.5,0,0,1,5.44,2.07,9.9,9.9,0,0,1,3.54,3.92,13.68,13.68,0,0,1,1.25,6.21,13.84,13.84,0,0,1-1.23,5.92,13.64,13.64,0,0,1-3.36,4.52,14.84,14.84,0,0,1-4.89,2.86,17.87,17.87,0,0,1-6,1H466a15.79,15.79,0,0,0-1.66.08q0.18-2.45.27-5t0.09-5.82V324.7Q464.68,321.43,464.59,318.9Zm6.72,14v5.68l1.61,0.08h2.33a10.67,10.67,0,0,0,8-3q3-3,3-9.19a12.19,12.19,0,0,0-.74-4.38,9.39,9.39,0,0,0-2.08-3.3,9.09,9.09,0,0,0-3.23-2.09A11.57,11.57,0,0,0,476,316c-1.08,0-2,0-2.62.06l-2,.14V332.9h-0.06Z"/><path class="cls-3" d="M500.58,318.9q-0.08-2.55-.24-5.11,2,0,4,.12t4,0.08q3.31,0,5.89-.06t3.47-.14a6.24,6.24,0,0,0-.18,1.66,8,8,0,0,0,0,1,4.18,4.18,0,0,0,.13.79l-2.85-.16-3-.16-2.62-.12h-1.66q-0.18,2.17-.2,4.3t0,4.3q2.91,0,5.27-.12t4.91-.2c-0.09.45-.15,0.79-0.18,1a5.78,5.78,0,0,0,0,.75,3.34,3.34,0,0,0,.07.65c0,0.23.1,0.55,0.16,1q-5.11-.36-10.17-0.36v5q0,2.57.13,4.93,2.55,0,5.11-.12t5.15-.39a6.81,6.81,0,0,0-.13.79,10.85,10.85,0,0,0,0,2,2.52,2.52,0,0,0,.13.59c-0.81,0-1.8,0-3-.06s-2.8,0-4.86,0h-8.69a3.74,3.74,0,0,0-.87.06q0.16-2.45.24-5t0.08-5.82V324.7Q500.66,321.43,500.58,318.9Z"/><path class="cls-3" d="M254,377.09q-3.33-.12-6.65-0.12t-6.65.08q-3.33.08-6.65,0.23v4.39q0,6.39.17,11.36t0.52,9.74a31.85,31.85,0,0,0-3.24-.15h-7.87a31.83,31.83,0,0,0-3.24.15q0.35-4.78.52-9.74t0.17-11.36V371.2q0-6.39-.17-11.36t-0.52-10q1.49,0.16,3.24.27t3.94,0.12q2.19,0,3.94-.12l3.23-.21q-0.44,5-.57,9.9T234,371.08q2.27,0.08,5.47.12t7.92,0h7.7q3,0,5.51-.12,0-6.39-.17-11.28T260,349.9q1.49,0.16,3.24.27t3.94,0.12q2.19,0,3.94-.12t3.24-.27q-0.35,5-.52,10t-0.18,11.36v10.48q0,6.39.18,11.36t0.52,9.74a31.84,31.84,0,0,0-3.24-.15H263.2a31.82,31.82,0,0,0-3.24.15q0.35-4.78.52-9.74t0.17-11.36v-4.39Z"/><path class="cls-3" d="M289.9,365.73a26.89,26.89,0,0,1,6.78-8.78A32.15,32.15,0,0,1,307.26,351a42,42,0,0,1,13.83-2.12,48.16,48.16,0,0,1,13,1.69,31,31,0,0,1,10.5,5.08,24,24,0,0,1,7,8.59,27,27,0,0,1,2.58,12.13,23.85,23.85,0,0,1-2.43,10.75,27.3,27.3,0,0,1-6.91,8.75,32.13,32.13,0,0,1-10.54,5.81,41.66,41.66,0,0,1-13.47,2.08,54,54,0,0,1-13-1.5,29.29,29.29,0,0,1-10.58-4.85,23.93,23.93,0,0,1-7.13-8.55,27.32,27.32,0,0,1-2.62-12.44A24.39,24.39,0,0,1,289.9,365.73Zm48.59,0A19.84,19.84,0,0,0,334.6,359a16.86,16.86,0,0,0-6-4.27,19.62,19.62,0,0,0-7.74-1.5,16.76,16.76,0,0,0-8,1.89,18.09,18.09,0,0,0-6,5.12,23.14,23.14,0,0,0-3.72,7.59,33,33,0,0,0-1.27,9.28,31.65,31.65,0,0,0,1.49,10.4,18.1,18.1,0,0,0,4,6.82,15,15,0,0,0,5.86,3.73,21.13,21.13,0,0,0,7,1.16,19.75,19.75,0,0,0,7.52-1.46,16.74,16.74,0,0,0,6.25-4.47,22.57,22.57,0,0,0,4.29-7.62,33.18,33.18,0,0,0,1.62-10.94,26.91,26.91,0,0,0-1.41-9v0Z"/><path class="cls-3" d="M384.37,402.74a23.73,23.73,0,0,1-8.44-3.47,17.36,17.36,0,0,1-5.64-6.24,19.34,19.34,0,0,1-2.06-9.28v-18q0-6.24-.09-10.09t-0.08-5.75q1.75,0.16,3.59.27t3.58,0.12q1.75,0,3.59-.12t3.59-.27q-0.88,7.47-1,13.9t-0.18,13.06a45.73,45.73,0,0,0,1.14,11.32,15.07,15.07,0,0,0,3.37,6.66,10.82,10.82,0,0,0,5.47,3.12,32.72,32.72,0,0,0,7.52.77q5.25,0,8.22-2.31a14.31,14.31,0,0,0,4.51-6.16,29.45,29.45,0,0,0,1.88-8.82q0.35-5,.35-10.36t-0.17-10.59q-0.18-5.27-.52-10.59,1.22,0.16,2.36.27a20.17,20.17,0,0,0,2.1.12,20.46,20.46,0,0,0,2.19-.12l2.19-.27q-0.18,1.7-.35,4.55T421.14,361q-0.18,3.74-.31,8.24t-0.13,9.52q0,13.4-6.56,19.22t-19.24,5.82A49.66,49.66,0,0,1,384.37,402.74Z"/><path class="cls-3" d="M454.48,353.63a10,10,0,0,0-6.56,2.08,6.14,6.14,0,0,0-2.54,4.85,6,6,0,0,0,2,4.66,20.8,20.8,0,0,0,4.94,3.28q3,1.46,6.39,2.81a34.63,34.63,0,0,1,6.39,3.31A18.16,18.16,0,0,1,470,379.4a12.27,12.27,0,0,1,2,7.2,15.06,15.06,0,0,1-1.66,7,15.92,15.92,0,0,1-4.72,5.47,22.3,22.3,0,0,1-7.3,3.46,35,35,0,0,1-9.49,1.2,36.64,36.64,0,0,1-8.44-.89,17.37,17.37,0,0,1-5.64-2.2q0.87-2.7,1.49-4.93a49.24,49.24,0,0,0,1-4.85H439a9.36,9.36,0,0,0,1.31,3.2,10.57,10.57,0,0,0,2.45,2.66,11.23,11.23,0,0,0,3.59,1.81,15.89,15.89,0,0,0,4.72.66q5.25,0,7.74-2.31a7.3,7.3,0,0,0,2.49-5.55,6.33,6.33,0,0,0-1.92-4.78,19,19,0,0,0-4.81-3.27q-2.89-1.43-6.3-2.77a33.29,33.29,0,0,1-6.3-3.27,17.57,17.57,0,0,1-4.81-4.74,12.48,12.48,0,0,1-1.92-7.2,15,15,0,0,1,1.62-7.09,15.51,15.51,0,0,1,4.33-5.16,19.51,19.51,0,0,1,6.25-3.16,25.55,25.55,0,0,1,7.48-1.08,30.54,30.54,0,0,1,8.26,1,20.13,20.13,0,0,1,6.08,2.77c-0.52,1.18-1,2.32-1.36,3.43l-1.44,4.2h-1.31Q462.26,353.63,454.48,353.63Z"/><path class="cls-3" d="M485,359.84q-0.15-5-.46-10,3.94,0.08,7.79.23t7.79,0.16q6.47,0,11.5-.12t6.78-.27a12.21,12.21,0,0,0-.35,3.24,16,16,0,0,0,.09,1.93q0.09,0.7.26,1.54l-5.55-.31-5.86-.31q-2.84-.16-5.12-0.23l-3.24-.08q-0.35,4.24-.39,8.4t0,8.4q5.69-.08,10.28-0.23t9.58-.39q-0.26,1.31-.35,2a11.72,11.72,0,0,0-.09,1.47,6.5,6.5,0,0,0,.13,1.27c0.09,0.43.19,1.06,0.31,1.89q-10-.69-19.86-0.69v9.86q0,5,.26,9.63,5,0,10-.23t10.06-.77c-0.12.57-.2,1.08-0.26,1.54a21.12,21.12,0,0,0,0,3.85,5.1,5.1,0,0,0,.26,1.16q-2.36-.08-5.82-0.11t-9.49,0h-17a15,15,0,0,0-1.71.11q0.31-4.78.46-9.74t0.15-11.36V371.2Q485.18,364.8,485,359.84Z"/><path class="cls-3" d="M219.07,417.11q0-1.55-.13-3.11l2.15,0.08h5.32a16,16,0,0,0,1.87-.09,4.31,4.31,0,0,0-.1,1,5.74,5.74,0,0,0,0,.6,1.22,1.22,0,0,0,.07.48l-1.53-.09-1.61-.09-1.41-.07h-0.89c-0.06.88-.1,1.75-0.11,2.62s0,1.74,0,2.62q1.57,0,2.83-.07l2.64-.12a3.18,3.18,0,0,1-.1.62,4,4,0,0,0,0,.46,2.38,2.38,0,0,0,0,.4,5.79,5.79,0,0,0,.09.59q-2.75-.22-5.47-0.22v3.07q0,1.56.07,3c0.92,0,1.83,0,2.75-.07s1.84-.13,2.77-0.24c0,0.18-.06.33-0.07,0.48a7.73,7.73,0,0,0,0,1.2,1.76,1.76,0,0,0,.07.36h-9.33q0.08-1.49.13-3t0-3.54v-3.27C219.11,419.32,219.1,418.14,219.07,417.11Z"/><path class="cls-3" d="M232.42,416q0-1.13-.07-2a4.92,4.92,0,0,0,2.17,0q2.63,2.91,5.2,5.72t5.27,5.71V414.93a8.35,8.35,0,0,0-.08-0.94,4.92,4.92,0,0,0,2.17,0c-0.08,1.46-.14,2.77-0.19,4s-0.09,2.29-.12,3.33,0,2.07-.06,3.09,0,2.1,0,3.25v2.88h-1a8.84,8.84,0,0,0-.94,0q-5-5.77-10.53-11.6v11.61a3.86,3.86,0,0,0-.58,0H232a13.26,13.26,0,0,0,.12-1.37q0.07-1.18.16-2.87c0.06-1.13.11-2.35,0.14-3.68s0.06-2.59.06-3.81S232.45,416.75,232.42,416Z"/><path class="cls-3" d="M251.57,417.11q0-1.55-.13-3.11l2.15,0.08h5.32a16,16,0,0,0,1.87-.09,4.29,4.29,0,0,0-.1,1,5.61,5.61,0,0,0,0,.6,1.22,1.22,0,0,0,.07.48l-1.53-.09-1.61-.09-1.41-.07h-0.89c-0.06.88-.1,1.75-0.11,2.62s0,1.74,0,2.62q1.57,0,2.83-.07l2.64-.12a3.18,3.18,0,0,1-.1.62,4.15,4.15,0,0,0,0,.46,2.37,2.37,0,0,0,0,.4c0,0.13,0,.33.08,0.59q-2.75-.22-5.47-0.22v3.07q0,1.56.07,3c0.92,0,1.83,0,2.75-.07s1.84-.13,2.77-0.24a1.58,1.58,0,0,1-.07.48,7.7,7.7,0,0,0,0,1.2,1.7,1.7,0,0,0,.07.36h-9.33q0.08-1.49.13-3t0-3.54v-3.27C251.61,419.32,251.6,418.14,251.57,417.11Z"/><path class="cls-3" d="M268.32,422.9v4.54a29.34,29.34,0,0,0,.15,3,8.36,8.36,0,0,0-.89,0h-2.17a8.36,8.36,0,0,0-.89,0q0.1-1.49.15-3t0-3.54v-6.81c0-1-.08-2.07-0.15-3.11l0.89,0.09h1.08A13.51,13.51,0,0,0,268,414c0.55-.06,1.24-0.06,2.06-0.06h1.57a10,10,0,0,1,1.12.14,3.89,3.89,0,0,1,1.48.63,3.72,3.72,0,0,1,1.57,3.17,4.18,4.18,0,0,1-1,2.86,5.27,5.27,0,0,1-2.77,1.56q1.16,2,2.48,4.07t2.65,4h-4.36l-4.23-7.48h-0.22Zm3.59-6.1a1.89,1.89,0,0,0-.66-1,2.53,2.53,0,0,0-1.16-.42,13,13,0,0,0-1.7-.1q-0.07,3.27-.07,6.53h0.53a3.29,3.29,0,0,0,2.44-.85,3.54,3.54,0,0,0,.84-2.58,5.24,5.24,0,0,0-.22-1.54v0Z"/><path class="cls-3" d="M292.16,415.84a5.76,5.76,0,0,0-7,1.21,7.17,7.17,0,0,0-1.39,2.34,9.32,9.32,0,0,0-.53,3.3,8.58,8.58,0,0,0,.4,2.66,6.38,6.38,0,0,0,1.14,2.13,5.21,5.21,0,0,0,1.86,1.42,5.82,5.82,0,0,0,2.48.5h0.71l0.77-.09a5.33,5.33,0,0,0,.69-0.13,1.76,1.76,0,0,0,.46-0.18,5.52,5.52,0,0,0,.06-0.72v-1q0-2-.07-2.87l-0.1-1.26a6.24,6.24,0,0,0,.64.08h2.44a6.28,6.28,0,0,0,.66-0.08,4.15,4.15,0,0,0-.08.63,6.12,6.12,0,0,1-.06,1,8,8,0,0,0,0,1.2v3.12a4.19,4.19,0,0,0,.06.73,27.5,27.5,0,0,1-3.22.72,20,20,0,0,1-3.22.26,12.92,12.92,0,0,1-3.82-.54,8.85,8.85,0,0,1-3-1.59,7.42,7.42,0,0,1-2-2.52,7.59,7.59,0,0,1-.71-3.33,9.81,9.81,0,0,1,.76-4,7.86,7.86,0,0,1,2.1-2.86,9.07,9.07,0,0,1,3.17-1.72,13.28,13.28,0,0,1,4-.57,11.92,11.92,0,0,1,3.17.37,13.07,13.07,0,0,1,2.64,1.07l-0.43,1.23a12.34,12.34,0,0,0-.3,1.23H294.1A5.94,5.94,0,0,0,292.16,415.84Z"/><path class="cls-3" d="M307.25,419.63q0.48-.88.94-1.84t0.89-1.93l0.84-1.86,0.54,0.09a4.59,4.59,0,0,0,1.13,0l0.59-.09q-0.41.68-1,1.77c-0.41.73-.85,1.52-1.31,2.37s-0.94,1.72-1.41,2.6-0.9,1.71-1.29,2.46V428a18.88,18.88,0,0,0,.21,2.52h-4a22.09,22.09,0,0,1,.17-2.26,22.2,22.2,0,0,0,.12-2.3v-2.24q-0.6-1.2-1.39-2.68l-1.52-2.87-1.35-2.52-0.9-1.64,1.08,0.09h2.16l1.07-.09,0.93,2,1,2.11q0.51,1,.94,1.88a12,12,0,0,0,.7,1.25h0A18.14,18.14,0,0,0,307.25,419.63Z"/><path class="cls-3" d="M326.61,422.9v4.54a29.35,29.35,0,0,0,.15,3,8.36,8.36,0,0,0-.89,0h-2.13a8.36,8.36,0,0,0-.89,0q0.1-1.49.15-3t0-3.54v-6.81c0-1-.08-2.07-0.15-3.11l0.89,0.09h1.08a13.51,13.51,0,0,0,1.48-.06c0.55-.06,1.24-0.06,2.06-0.06h1.57a10,10,0,0,1,1.12.14,3.88,3.88,0,0,1,1.48.63,3.72,3.72,0,0,1,1.57,3.17,4.18,4.18,0,0,1-1,2.86,5.26,5.26,0,0,1-2.77,1.56q1.16,2,2.48,4.07t2.65,4h-4.32l-4.31-7.48h-0.22Zm3.59-6.1a1.88,1.88,0,0,0-.66-1,2.54,2.54,0,0,0-1.16-.42,13,13,0,0,0-1.7-.1q-0.07,3.27-.07,6.53h0.53a3.29,3.29,0,0,0,2.44-.85,3.54,3.54,0,0,0,.84-2.58,5.25,5.25,0,0,0-.22-1.54v0Z"/><path class="cls-3" d="M352.21,430.5h-4.1l-0.8-2.4q-0.41-1.22-.87-2.45h-5.59q-0.48,1.23-.89,2.45t-0.75,2.4a3.78,3.78,0,0,0-.57,0h-1.15a4.91,4.91,0,0,0-.63,0q0.29-.62.77-1.73t1.06-2.5l1.24-3,1.33-3.23,1.3-3.21q0.64-1.58,1.17-3l0.46,0.08a3,3,0,0,0,.92,0l0.46-.08,1.65,4.37q0.88,2.33,1.77,4.57t1.74,4.26A35.85,35.85,0,0,0,352.21,430.5Zm-8.53-12c-0.42,1-.81,1.91-1.18,2.85s-0.73,1.89-1.08,2.87h4.41l-1-2.87c-0.4-.93-0.77-1.87-1.15-2.83v0Z"/><path class="cls-3" d="M356.59,416.64a5.94,5.94,0,0,0-.06-0.84h-0.89l-1.13.06-1.23.09-1.16.13a4.85,4.85,0,0,1,.08-0.53,3.9,3.9,0,0,0,0-1.06,3.23,3.23,0,0,0-.08-0.53h12.39a4.85,4.85,0,0,1-.08.53,3.9,3.9,0,0,0,0,1.06,3.23,3.23,0,0,0,.08.53l-1.08-.13-1.19-.09-1.12-.06h-0.89a2.41,2.41,0,0,0,0,.34v11.3q0,1.54.14,3a8.36,8.36,0,0,0-.89,0h-2.17a8.33,8.33,0,0,0-.89,0q0.1-1.49.14-3t0-3.54v-6A10.91,10.91,0,0,0,356.59,416.64Z"/><path class="cls-3" d="M368.05,417.11q0-1.55-.14-3.11l0.89,0.09H371l0.89-.09q-0.1,1.56-.15,3.11v10.33a29.35,29.35,0,0,0,.15,3,8.36,8.36,0,0,0-.89,0H368.8a8.36,8.36,0,0,0-.89,0q0.1-1.49.14-3t0-3.54v-3.27C368.1,419.32,368.08,418.14,368.05,417.11Z"/><path class="cls-3" d="M377,416q0-1.13-.07-2a4.92,4.92,0,0,0,2.17,0q2.63,2.91,5.2,5.72t5.27,5.71V414.93a7.88,7.88,0,0,0-.08-0.94,4.92,4.92,0,0,0,2.17,0c-0.08,1.46-.14,2.77-0.19,4s-0.09,2.29-.12,3.33,0,2.07-.06,3.09,0,2.1,0,3.25v2.88h-1a8.81,8.81,0,0,0-.94,0q-5-5.77-10.54-11.6v11.61a3.84,3.84,0,0,0-.58,0h-1.64a13.25,13.25,0,0,0,.12-1.37q0.07-1.18.16-2.87c0.06-1.13.11-2.35,0.15-3.68s0.06-2.59.06-3.81S377.08,416.75,377,416Z"/><path class="cls-3" d="M408.31,415.84a5.76,5.76,0,0,0-7,1.21,7.19,7.19,0,0,0-1.39,2.34,9.34,9.34,0,0,0-.53,3.3,8.58,8.58,0,0,0,.4,2.66,6.37,6.37,0,0,0,1.15,2.13,5.2,5.2,0,0,0,1.8,1.42,5.82,5.82,0,0,0,2.48.5h0.71l0.77-.09a5.35,5.35,0,0,0,.69-0.13,1.78,1.78,0,0,0,.46-0.18,5.68,5.68,0,0,0,.06-0.72v-1q0-2-.07-2.87l-0.1-1.26a6.24,6.24,0,0,0,.64.08h2.43a6.2,6.2,0,0,0,.66-0.08,4.22,4.22,0,0,0-.08.63,6.12,6.12,0,0,1-.06,1,8,8,0,0,0,0,1.2v3.12a4.06,4.06,0,0,0,.06.73,27.61,27.61,0,0,1-3.22.72,20,20,0,0,1-3.22.26,12.92,12.92,0,0,1-3.82-.54,8.85,8.85,0,0,1-3-1.59,7.4,7.4,0,0,1-2-2.52,7.58,7.58,0,0,1-.71-3.33,9.81,9.81,0,0,1,.76-4,7.86,7.86,0,0,1,2.1-2.86,9.06,9.06,0,0,1,3.17-1.72,13.27,13.27,0,0,1,4-.57,11.93,11.93,0,0,1,3.17.37,13.1,13.1,0,0,1,2.64,1.07l-0.37,1.22a12.22,12.22,0,0,0-.3,1.23h-0.35A6,6,0,0,0,408.31,415.84Z"/><path class="cls-3" d="M427.81,415.18a2.55,2.55,0,0,0-1.81.65,2.09,2.09,0,0,0-.21,2.95l0,0.05a5.76,5.76,0,0,0,1.36,1c0.55,0.3,1.13.6,1.76,0.88a9.26,9.26,0,0,1,1.76,1,5.37,5.37,0,0,1,1.36,1.49,4.21,4.21,0,0,1,.54,2.25,5.21,5.21,0,0,1-.46,2.2,4.88,4.88,0,0,1-1.3,1.71,5.8,5.8,0,0,1-2,1.08,8.6,8.6,0,0,1-2.62.37,8.89,8.89,0,0,1-2.33-.28,4.43,4.43,0,0,1-1.56-.68q0.24-.84.41-1.54c0.11-.46.21-1,0.29-1.51h0.46a3.14,3.14,0,0,0,.36,1,3.19,3.19,0,0,0,.67.83,3,3,0,0,0,1,.57,4,4,0,0,0,1.3.2,2.84,2.84,0,0,0,2.13-.72,2.41,2.41,0,0,0,.69-1.73,2.11,2.11,0,0,0-.53-1.49,5.29,5.29,0,0,0-1.33-1q-0.79-.45-1.74-0.87a8.84,8.84,0,0,1-1.74-1,5.17,5.17,0,0,1-1.33-1.48,4.28,4.28,0,0,1-.53-2.25,5.21,5.21,0,0,1,.45-2.21A4.75,4.75,0,0,1,424.1,415a5.18,5.18,0,0,1,1.72-1,6.28,6.28,0,0,1,2.06-.34,7.64,7.64,0,0,1,2.28.31,5.37,5.37,0,0,1,1.67.87c-0.14.37-.27,0.72-0.37,1.07l-0.4,1.31h-0.32A2.89,2.89,0,0,0,427.81,415.18Z"/><path class="cls-3" d="M449.22,428.81a5.88,5.88,0,0,0-.19,1,10.84,10.84,0,0,1-4.92,1,11.14,11.14,0,0,1-3.75-.59,7.88,7.88,0,0,1-2.8-1.66,7.13,7.13,0,0,1-1.75-2.53,8.27,8.27,0,0,1-.6-3.17,10.28,10.28,0,0,1,.78-4.24,7.75,7.75,0,0,1,2.1-2.83,8.34,8.34,0,0,1,3-1.6,13,13,0,0,1,3.64-.5,10.31,10.31,0,0,1,1.33.09q0.7,0.1,1.35.25a10.07,10.07,0,0,1,1.24.38,6.14,6.14,0,0,1,1,.45,7.46,7.46,0,0,0-.37,1.21,9.05,9.05,0,0,0-.18,1.24h-0.34a5.87,5.87,0,0,0-1.88-1.64,4.89,4.89,0,0,0-2.27-.49,4.78,4.78,0,0,0-1.94.43,5.25,5.25,0,0,0-1.77,1.32,6.73,6.73,0,0,0-1.29,2.27,9.79,9.79,0,0,0-.49,3.3,8.75,8.75,0,0,0,.51,3.16,6.23,6.23,0,0,0,1.31,2.14,5,5,0,0,0,1.83,1.21,5.79,5.79,0,0,0,2.06.38,5.51,5.51,0,0,0,1.18-.13,7.84,7.84,0,0,0,1.18-.36,6,6,0,0,0,1.1-.57,4.68,4.68,0,0,0,.9-0.74l0.31,0.19Q449.37,428.29,449.22,428.81Z"/><path class="cls-3" d="M462.51,422.49h-3.66l-1.83.07v4.88a29.35,29.35,0,0,0,.15,3,8.36,8.36,0,0,0-.89,0h-2.14a8.36,8.36,0,0,0-.89,0q0.1-1.49.15-3t0-3.54v-6.81c0-1-.08-2.07-0.15-3.11l0.89,0.09h2.17l0.89-.09c-0.08,1-.13,2.07-0.16,3.09s0,2.19,0,3.52h7.33v-3.52q0-1.52-.14-3.09l0.89,0.09h2.16l0.89-.09q-0.1,1.56-.14,3.11v10.35q0,1.54.14,3a8.34,8.34,0,0,0-.89,0H465a8.33,8.33,0,0,0-.89,0q0.1-1.49.14-3t0-3.54v-1.37Z"/><path class="cls-3" d="M472.74,417.11q0-1.55-.13-3.11l2.15,0.08h5.31a16,16,0,0,0,1.87-.09,4.31,4.31,0,0,0-.1,1,5.56,5.56,0,0,0,0,.6,1.22,1.22,0,0,0,.07.48l-1.53-.09-1.61-.09-1.41-.07h-0.89c-0.06.88-.1,1.75-0.11,2.62s0,1.74,0,2.62q1.56,0,2.83-.07l2.64-.12a3.19,3.19,0,0,1-.1.62,4.28,4.28,0,0,0,0,.46,2.49,2.49,0,0,0,0,.4c0,0.13,0,.33.08,0.59q-2.75-.22-5.47-0.22v3.07q0,1.56.07,3c0.92,0,1.83,0,2.75-.07s1.84-.13,2.77-0.24c0,0.18-.06.33-0.07,0.48a7.39,7.39,0,0,0,0,1.2,1.78,1.78,0,0,0,.07.36H472.6q0.08-1.49.13-3t0-3.54v-3.27C472.8,419.32,472.74,418.14,472.74,417.11Z"/><path class="cls-3" d="M487.29,425.12l-0.38,5.38a3.86,3.86,0,0,0-.58,0h-1.12a3.78,3.78,0,0,0-.57,0q0.77-4.13,1.38-8.21t1.11-8.29l0.5,0.09a3,3,0,0,0,.49,0,2.93,2.93,0,0,0,.46,0l0.51-.09q0.65,1.45,1.36,2.93l1.42,3c0.47,1,1,2,1.42,2.89l1.36,2.69q1.45-2.69,2.88-5.63t2.74-5.85a5.2,5.2,0,0,0,1,.12,5.13,5.13,0,0,0,1-.12l0.52,4.44,0.54,4.65q0.27,2.27.53,4.24c0.18,1.31.34,2.37,0.48,3.17h-4q-0.12-2.48-.4-5.35t-0.57-5.72h0L496.74,425q-1.33,2.74-2.63,5.5h-0.92l-2.59-5.37q-1.29-2.7-2.66-5.45h0A51.64,51.64,0,0,0,487.29,425.12Z"/><path class="cls-3" d="M507.93,417.11q0-1.55-.13-3.11l2.15,0.08h5.32a16,16,0,0,0,1.87-.09,4.26,4.26,0,0,0-.1,1,5.62,5.62,0,0,0,0,.6,1.22,1.22,0,0,0,.07.48l-1.53-.09-1.61-.09-1.41-.07h-0.89c-0.06.88-.1,1.75-0.11,2.62s0,1.74,0,2.62q1.57,0,2.83-.07l2.64-.12a3.19,3.19,0,0,1-.1.62,4,4,0,0,0,0,.46,2.29,2.29,0,0,0,0,.4,5.78,5.78,0,0,0,.09.59q-2.75-.22-5.47-0.22v3.07q0,1.56.07,3c0.92,0,1.83,0,2.75-.07s1.84-.13,2.77-0.24c0,0.18-.06.33-0.07,0.48a7.74,7.74,0,0,0,0,1.2,1.71,1.71,0,0,0,.07.36h-9.33q0.08-1.49.13-3t0-3.54v-3.27C508,419.32,508,418.14,507.93,417.11Z"/><path class="cls-4" d="M293.95,206.49V169.73l74.73-46.83,74.73,46.81V206.5H587.74C581.07,91.32,485.54,0,368.68,0S156.3,91.32,149.58,206.5H293.95Z"/><polygon class="cls-3" points="343.4 46.83 355.11 52.34 349.35 40.81 358.45 31.2 345.27 33.3 339.37 21.5 337.43 34.54 324.25 36.64 335.88 42.95 333.98 55.7 343.4 46.83"/><polygon class="cls-3" points="295.3 62.46 308.14 64.08 299.1 54.9 304.78 42.94 292.89 49.01 283.64 39.61 285.82 52.62 273.94 58.68 286.95 61.09 289.08 73.8 295.3 62.46"/><polygon class="cls-3" points="254.38 92.19 267.09 89.76 255.66 83.82 257.36 70.7 247.94 80.14 236.23 74.06 242.33 85.75 232.9 95.2 246.02 93.47 251.97 104.89 254.38 92.19"/><polygon class="cls-3" points="224.65 133.1 235.99 126.87 223.28 124.76 220.85 111.74 214.8 123.64 201.79 121.47 211.2 130.71 205.15 142.6 217.09 136.91 226.29 145.93 224.65 133.1"/><polygon class="cls-3" points="209.02 181.2 217.88 171.77 205.14 173.69 198.8 162.07 196.73 175.25 183.69 177.21 195.49 183.08 193.41 196.27 203.01 187.16 214.54 192.9 209.02 181.2"/><polygon class="cls-3" points="528.35 181.22 522.84 192.92 534.37 187.16 543.98 196.25 541.89 183.08 553.68 177.18 540.65 175.25 538.54 162.06 532.23 173.7 519.49 171.79 528.35 181.22"/><polygon class="cls-3" points="512.72 133.12 511.1 145.95 520.28 136.91 532.24 142.59 526.18 130.7 535.57 121.45 522.57 123.64 516.5 111.75 514.09 124.77 501.38 126.89 512.72 133.12"/><polygon class="cls-3" points="483 92.2 485.42 104.91 491.36 93.47 504.49 95.17 495.04 85.74 501.12 74.04 489.44 80.14 479.98 70.71 481.72 83.83 470.29 89.78 483 92.2"/><polygon class="cls-3" points="442.08 62.47 448.32 73.8 450.43 61.09 463.44 58.66 451.55 52.6 453.71 39.6 444.48 49.01 432.58 42.97 438.28 54.91 429.25 64.1 442.08 62.47"/><polygon class="cls-3" points="393.98 46.84 403.41 55.69 401.49 42.95 413.12 36.61 399.93 34.53 397.97 21.49 392.1 33.3 378.91 31.23 388.03 40.82 382.28 52.35 393.98 46.84"/><path class="cls-1" d="M600.6,450.34a13.42,13.42,0,0,1,7.19-7.19,13.65,13.65,0,0,1,10.53,0,13.42,13.42,0,0,1,7.19,7.19,13.7,13.7,0,0,1,0,10.55,13.39,13.39,0,0,1-2.89,4.26,13.19,13.19,0,0,1-4.3,2.83,14.13,14.13,0,0,1-10.53,0A13.47,13.47,0,0,1,600.6,450.34Zm1.45,10a12.2,12.2,0,0,0,2.53,3.85,12,12,0,0,0,3.8,2.6,11.84,11.84,0,0,0,9.36,0,12,12,0,0,0,3.8-2.6,12.23,12.23,0,0,0,2.53-3.85,12.4,12.4,0,0,0,0-9.4,12.19,12.19,0,0,0-2.53-3.85,12,12,0,0,0-3.8-2.61,11.86,11.86,0,0,0-9.36,0,12,12,0,0,0-3.8,2.61,12.15,12.15,0,0,0-2.53,3.85,12.42,12.42,0,0,0,0,9.37v0ZM608,449.43c0-.92-0.11-1.73-0.19-2.44l1.53,0.13c0.52,0,1,.06,1.57.06a12.69,12.69,0,0,0,1.53-.09,12.89,12.89,0,0,1,1.53-.1,7.3,7.3,0,0,1,1.85.23,4.4,4.4,0,0,1,1.51.7,3.34,3.34,0,0,1,1.4,2.85,3.66,3.66,0,0,1-.55,2,5.3,5.3,0,0,1-1.34,1.46,6.1,6.1,0,0,1-1.68.88,6,6,0,0,1-1.6.34q0.75,0.9,1.66,2.12T617,460q0.94,1.19,1.78,2.19a13.12,13.12,0,0,0,1.4,1.49v0.19l-0.78-.13a4.59,4.59,0,0,0-.66,0,8.17,8.17,0,0,0-1.47.19q-1.4-2-2.89-4t-3.19-4H610v2.64q0,2.72.23,5.44a5.37,5.37,0,0,0-1.21-.19,5.43,5.43,0,0,0-1.25.19q0.08-1.32.17-2.64t0.09-2.64v-6.46q0-1.4-.08-2.78v0Zm2.66,5.38h1a7.65,7.65,0,0,0,1.83-.21,4.54,4.54,0,0,0,1.51-.66,3.2,3.2,0,0,0,1-1.19,3.81,3.81,0,0,0,.38-1.75,2.88,2.88,0,0,0-1-2.3,3.75,3.75,0,0,0-2.55-.83q-0.72,0-1.38.06a9.1,9.1,0,0,0-1.23.13L610,449.83c-0.05.6-.08,1.2-0.08,1.78v3.06a2.32,2.32,0,0,0,.68.11v0Z"/></svg>